<svg data-name="Layer 1" xmlns="http://www.w3.org/2000/svg" viewBox="0 0 199.68 199.7">
    <path fill='black' d="M93.99 0h11.7a11.27 11.27 0 001.51.32 92.17 92.17 0 0134.81 9.07c30.74 15.07 49.52 39.43 56.1 73.07.74 3.8 1.06 7.68 1.57 11.53v11.66a13.85 13.85 0 00-.33 1.68 92.3 92.3 0 01-11.42 39.33c-18.39 32.7-46.43 50.51-83.9 52.82a92.58 92.58 0 01-51-11.57q-42.26-23.19-51.46-70.69C.84 113.41.51 109.53 0 105.65V93.99a14.24 14.24 0 00.33-1.68 94 94 0 0111.4-39.33C27.26 24.87 50.85 7.65 82.45 1.57 86.25.84 90.14.51 93.99 0zM83.27 148c-5.69-1.38-11.36-2.48-16.84-4.16-10.79-3.29-18.79-10.11-23.26-20.59-2.63-6.15-3.51-12.7-3.94-19.36-.71-10.72 1.78-20.34 8.87-28.61a2.51 2.51 0 00.4-2c-2.59-7.83-1.78-15.49 1-23.09.37-1 .87-1.53 2-1.41a47 47 0 015.6.62c6.48 1.53 12.15 4.82 17.67 8.4a4 4 0 003.43.62 89.44 89.44 0 0144.33 0 4.44 4.44 0 003.62-.57 124.75 124.75 0 0112.17-6.51c3.46-1.54 7.1-3 11.07-2.46a2.42 2.42 0 011.7 1.14c2.85 7.41 3.76 15 1.22 22.66a3 3 0 00.68 3.28 34.78 34.78 0 018.16 18.69 63.07 63.07 0 01-.88 19c-1.54 8.51-5.07 16-11.56 22-5.57 5.14-12.29 7.91-19.46 9.73-3.93 1-8 1.58-11.84 2.32a60.35 60.35 0 014.43 5.42c2.4 3.72 3 8 3 12.32v14.23c32.29-9.13 64.64-44.48 58.05-91.87a83.85 83.85 0 00-166.8 15.41c1.66 42.82 34.41 70.61 59.87 76.64v-2.15c0-4.55 0-9.1.05-13.65.07-6.49 2.14-12.08 7.26-16.02z"/>
</svg>
