<svg data-name="Layer 1" xmlns="http://www.w3.org/2000/svg" viewBox="0 0 100 100">
    <path fill='black' data-name="Path 3" d="M50 9a152.89 152.89 0 0120 .56 25.67 25.67 0 019.42 1.66 19.55 19.55 0 019.43 9.43A25.67 25.67 0 0190.47 30c0 5 .56 6.66.56 20a152.89 152.89 0 01-.56 20 25.67 25.67 0 01-1.66 9.42 19.55 19.55 0 01-9.43 9.43A25.67 25.67 0 0170 90.47c-5 0-6.66.56-20 .56a152.89 152.89 0 01-20-.56 25.67 25.67 0 01-9.42-1.66 19.55 19.55 0 01-9.43-9.43A25.67 25.67 0 019.53 70c0-5-.53-6.7-.53-20a152.84 152.84 0 01.56-20 25.67 25.67 0 011.66-9.42 20 20 0 013.88-5.55 9.38 9.38 0 015.55-3.88A25.67 25.67 0 0130 9.53 152.89 152.89 0 0150 9m0-8.9a165.2 165.2 0 00-20.51.56 34.34 34.34 0 00-12.2 2.21 21.7 21.7 0 00-8.87 5.55 21.81 21.81 0 00-5.55 8.87 25.22 25.22 0 00-2.21 12.2A165.2 165.2 0 00.1 50a165.2 165.2 0 00.56 20.51 34.13 34.13 0 002.22 12.2 21.72 21.72 0 005.54 8.87 21.81 21.81 0 008.87 5.55 34.62 34.62 0 0012.2 2.22 163.28 163.28 0 0020.51.54 163.28 163.28 0 0020.51-.55 34.09 34.09 0 0012.2-2.22 23.29 23.29 0 0014.42-14.41 34.39 34.39 0 002.22-12.2c0-5.54.55-7.21.55-20.51a165.2 165.2 0 00-.56-20.51 34.09 34.09 0 00-2.22-12.2 21.72 21.72 0 00-5.54-8.87 21.7 21.7 0 00-8.87-5.55A34.34 34.34 0 0070.51.66 165.2 165.2 0 0050 .1m0 24.4a25.08 25.08 0 00-25.5 24.67V50A25.5 25.5 0 1050 24.5m0 42.13a16.32 16.32 0 01-16.63-16v-.6a16.32 16.32 0 0116-16.63H50a16.32 16.32 0 0116.63 16v.61a16.32 16.32 0 01-16 16.63h-.6m26.58-49.35a6.1 6.1 0 106.1 6.1 6.15 6.15 0 00-6.1-6.1" fill-rule="evenodd"/>
</svg>
