<svg data-name="Layer 1" xmlns="http://www.w3.org/2000/svg" viewBox="0 0 100 81.12"><path data-name="Path 2" d="M31.67 81.07A57.81 57.81 0 0090 23.82V20a45.19 45.19 0 0010-10.56 46.52 46.52 0 01-11.67 3.34 21.65 21.65 0 008.89-11.12 50.54 50.54 0 01-12.78 5 19.83 19.83 0 00-15-6.66 20.87 20.87 0 00-20.55 20.56 10.81 10.81 0 00.55 4.44A57.44 57.44 0 017.22 3.33a21.26 21.26 0 00-2.78 10.56 22.07 22.07 0 008.89 17.18 18.64 18.64 0 01-9.44-2.77 20.3 20.3 0 0016.67 20 17.09 17.09 0 01-5.56.55 9.55 9.55 0 01-3.89-.55 21.07 21.07 0 0019.45 14.48A41.94 41.94 0 015 71.67a15.32 15.32 0 01-5-.6 52.38 52.38 0 0031.67 10" fill-rule="evenodd"/></svg>